# xmcd
#
# Track frame offsets:
#	150
#	13387
#	26850
#	47887
#	65212
#	76950
#	89075
#	102825
#	114237
#	124087
#	136950
#	151650
#	164937
#	175962
#	186587
#	199825
#	210337
#	223400
#	235262
#	246587
#
# Disc length: 3539
#
# Revision: 3
# Processed by: cddbd v1.5.1PL0 Copyright (c) Steve Scherf et al.
# Submitted via: EasyCDDAExtractor 7.0.6.1
# Normalized: r2:DSETVAR1
#
DISCID=370dd114
DTITLE=Various Artist - Best Of The West
DYEAR=1900
DGENRE=Country
TTITLE0=Lynn Anderson - Rose Garden
TTITLE1=Claude King - Wolverton Mountain
TTITLE2=Marty Robbins - El Paso
TTITLE3=Ray Price - For The Good Times
TTITLE4=Jody Miller - He's So Fine
TTITLE5=Tammy Wynette - Stand By Your Man
TTITLE6=Jimmy Dean - Big Bad John
TTITLE7=Johnny Horton - The Battle Of New Orleans
TTITLE8=Lynn Anderson - Snowbird
TTITLE9=Johnny Horton - North To Alaska
TTITLE10=Bobby Vinton - My Elusive Dreams
TTITLE11=Lynn Anderson - Top Of The World
TTITLE12=Frankie Laine - High Noon
TTITLE13=Statler Brothers - Flowers On The Wall
TTITLE14=Charlie Rich - Behind Closed Doors
TTITLE15=Willie Nelson - Blue Eyes Crying In The Rain
TTITLE16=Marty Robbins - Devil Woman
TTITLE17=Charlie Rich - The Most Beautiful Girl
TTITLE18=Stonewall Jackson - Waterloo
TTITLE19=Johnny Cash - Sunday Morning Coming Down
EXTD=
EXTT0=
EXTT1=
EXTT2=
EXTT3=
EXTT4=
EXTT5=
EXTT6=
EXTT7=
EXTT8=
EXTT9=
EXTT10=
EXTT11=
EXTT12=
EXTT13=
EXTT14=
EXTT15=
EXTT16=
EXTT17=
EXTT18=
EXTT19=
PLAYORDER=
